<?xml version="1.0" standalone="no"?>
<!DOCTYPE svg PUBLIC "-//W3C//DTD SVG 20010904//EN"
 "http://www.w3.org/TR/2001/REC-SVG-20010904/DTD/svg10.dtd">
<svg version="1.0" xmlns="http://www.w3.org/2000/svg"
 width="82.000000pt" height="82.000000pt" viewBox="0 0 82.000000 82.000000"
 preserveAspectRatio="xMidYMid meet">
<metadata>
Created by potrace 1.11, written by Peter Selinger 2001-2013
</metadata>
<g transform="translate(0.000000,82.000000) scale(0.100000,-0.100000)"
fill="#000000" stroke="none">
<path d="M480 803 c0 -16 -10 -18 -78 -18 -67 0 -86 -4 -144 -33 -77 -38 -130
-92 -166 -171 -36 -76 -38 -201 -4 -274 43 -96 126 -172 215 -199 34 -10 38
-15 34 -37 -7 -32 13 -61 41 -61 32 0 36 17 12 50 -19 27 -20 30 -4 30 10 0
14 -3 11 -7 -9 -8 22 -43 39 -43 20 0 27 19 14 35 -8 10 -9 15 -2 15 6 0 14
-4 17 -10 10 -16 33 -12 39 8 3 9 27 26 53 37 63 25 138 101 171 173 22 48 27
71 27 142 0 133 -49 221 -166 301 -33 22 -59 46 -59 53 0 13 -21 26 -41 26 -5
0 -9 -8 -9 -17z"/>
</g>
</svg>
