<svg height="56" viewBox="0 0 48 56" width="48" xmlns="http://www.w3.org/2000/svg" xmlns:xlink="http://www.w3.org/1999/xlink"><mask id="a" fill="#fff"><path d="m13.1081448.1260525h8.0807675v9.47782136h-8.0807675z" fill="none"/></mask><mask id="b" fill="#fff"><path d="m8.61155766 55.86h-4.27522391v-6.8937622h4.27522391z" fill="none"/></mask><g fill="none" fill-rule="evenodd"><circle cx="24" cy="26" fill="#ececec" r="24"/><g transform="translate(14)"><path d="m8.37639396 18.0066665c1.1088875.310023.70605208 1.4984445.86235625 2.2098216.0805.3647658.76642709.7482447.66345417 1.2155136-.25692917 1.1669154-2.87552709.3954888-3.980725.497154-.46052709.0424536-1.09412917.3968853-1.59222292.1659042-.7466375-.3466113.21366042-1.684179-.66345417-2.044476-.54002083-.0580944-.66345416.3329256-1.06159375.276507-.62689375-.0890967-.47025416-.6292629-.72986666-.9945873-.53800834-.7563444-1.73108542-.6996465-1.85787292-1.3811385-.15060209-.8108079.74965625-1.1909352 1.72504792-.9945873.5635.1133958 1.11022916.3896235 1.79146041.5527347.4930625.1181439 1.0525375.0916104 1.59222292.1653456 1.20783542.1659042 1.85250625.5957469 3.25119375.3318084" fill="#000"/><g fill="#335d94"><path d="m11.852704 34.8024169c-1.2998828-1.4562712 1.2902935-1.3435527 2.9506629-1.6402485.439332-.0787734.8591302-.2770024 1.2643669-.3588853.5536932-.111682 1.0800392-.1049448 1.4749763-.2049663.4347149-.1098681.9361997-.5742165 1.6866512-.4612389.9092076.136817.8843465.9426894 1.1940453 1.2813632.2539389.2775207 1.0249896.2720791 1.124079.7177706.2148713.9660105-1.9310007 1.0839114-2.9506629 1.4863294-.4606415.1816452-.9827256.8061316-1.686296.6662052-.5238599-.1044266-.4720067-1.1670899-1.1237239-1.2303159-.5057467-.0487151-.5863679.5104723-1.1240789.5128044-.4720067.0018138-.6563343-.5296474-1.1944005-.6662052-.5235047-.1329301-.8395965.0432735-1.6156194-.1026127"/><path d="m18.0039175 39.0367061c-.3256903-.3150718.1877705-.8844926-.3944841-1.0574957-.4915266-.0569039-.5789312.2503389-1.0518469.1886612-.4011309-.05213-.5440359-.580305-.8544387-.7176-.5689611-.2518665-1.1881052-.1145715-1.3147256-.4533215-.0804256-.2153946.2083754-.5526169.6573628-.6419828.8667351-.1726211 1.8371595.1941989 2.8926621.2266608.9245618.028452 1.9006359.1120892 2.6949216.0754263.4137597-.0190953.7347973-.1004411.9205738-.0754263.3795289.0509844.7663693.2858561.8544386.5663655.0491859.157154-.1196413.3206095-.0654704.5289388.0973748.37484.6517131.3544081.6570305.6797914.0129611.7309667-2.1193137.4372815-3.2864816.5289388-.673315.0527029-1.0106371.3440966-1.7095421.1510435"/><path d="m10.2705299 54.152309c-.0363881-.1708808-.60211945-.458052-.88292542-.8536423-.19635821-.276761-.2509403-.5974481-.40747761-.8036223-.27702986-.3653752-.57568657-.5832292-.74698508-.9041703-.37761194-.7068829-.97595522-2.1018594-2.17264179-1.2053064.31410448.7073907-.04497015 1.1484308-.40747761 1.6069906.18708955.3244958.76964179.2724444.74698507.6027802-.02643283.379848-.90489552.3290662-1.22243283.6528002.00343283.4798882.56504477.553268.95089552.8541502.73359701.5718033.84344776 1.6717375 2.24061194 1.7578127.40301492-.1206069.3638806-.5682486.67901492-.7533483.4977612-.0637312 1.34395519-.3803558 1.22243289-.9544443m3.4630447-2.2600448c-.0576716-.1680878-.6038358-.4080319-.8149552-.6025263-.3261194-.3008822-.8214776-.9097562-1.2900597-1.4566764-.6584179-.7678211-1.2385672-2.4728207-2.64843283-1.5066966.29041791.6680348.18914925 1.245678-.20391045 1.7578127.2320597.3262731.8259403.2404519.81495522.6027801-.01167164.3943209-.99277612.3727386-1.1541194.8036223.16477612.4138718.78508955.5108651 1.2900597.9039164.77856716.6058271 1.14862686 1.589217 2.44452236 1.4061485.2378956-.1751972.2742836-.499947.4074776-.7533482.4242985-.179006 1.4036866-.4252978 1.1544627-1.1550325m-1.0864925-3.7164674c-.0247164.6345189-.9100448.6327415-1.0864925 1.1550325.1486417.4352002.9443731.4646536 1.4936268.8036223.7967612.491568 1.4936269 1.6491395 2.7160597 1.1552863.1321642-.153615.1555075-.3877192.1359403-.6530542.3559851-.3478554 1.5028955-.6406126 1.0864926-1.4064024-.094403-.1736738-.6038359-.3140856-.8825821-.5019783-.2715373-.1833223-.457597-.5286387-.8149553-.8541502-.2564328-.2335963-.639194-.421743-.8829253-.6528002-.625806-.5938934-.9261791-1.402086-1.6975373-1.5569706-.5883881-.1183216-1.1170448.11172-1.1541194.4522121-.032612.2955502.4236119.5400646.4071343.9039164-.0144179.3234802-.3628508.368676-.3391642.8036222.1661493.2371511.823194.2930111 1.0185224.3516641m3.1915075-.8538962c1.1029701.3801019 1.7558955 1.307124 2.7836865 1.1047584.490209-.0962315.5245373-.4679544.4078209-.9541903.4287612-.3592814 1.1472537-.9031547.6786717-1.6072446-.9611941-.1698652-1.3357165-.6520385-1.9690747-1.0544844-.2509403-.159455-.5983433-.2343581-.8825821-.4019381-.8101492-.4773491-1.3261044-1.3746639-2.1733283-1.5066966-.5276269-.0822665-1.0878657.1124817-1.1541194.4519582-.0861642.4423096.5478806.5936395.6110448 1.0547384.0497761.3595352-.2581493.4306298-.1355971.8536423.4009553.2734601 1.090612.0766806 1.1541194.5024861.0422239.2813313-.7837164.4824273-.746985.8036223.0271194.2308034.7583134.3194176.746985.5525062-.289388-.0718563-.4572537-.5354943-.746985-.3013901.1850298.4783647.7576268.2716827 1.4263433.5022322m2.308582-3.2144891c.8472239.1015636 1.7397612.7302425 2.7840299.6025262 1.0782537-.1315249.4153731-.7728992.4751045-1.2553265.0405074-.3217028.3868806-.5128964.4074776-.8036223.0635074-.8968069-.6748955-.7655359-1.6295672-1.0044643-.439403-.1101966-.8211343-.4039694-1.2900597-.5525062-.5077164-.1609784-1.0593731-.2026195-1.4936268-.4019381-.4850598-.2221705-.8310896-.5225449-1.2224329-.6528003-.8637015-.2871712-1.9007612-.0655085-1.7658507.6027802.0782686.3861957.8197612.4707475 1.0188656.9541904.1053881.2559403-.0209403.4207273.1359403.8036222.3027762.1609784 1.1860448-.1071496 1.2900597.2008421.1819403.4438331-.4078209.7307504-.4074776 1.2053065.3192538.4151413 1.0301941.2214087 1.6975373.3013901m1.2224329-3.8170154c1.2059552-.1218764 3.4084627.2686358 3.3950746-.7030743-.0058358-.4326611-.5784328-.4057467-.6790149-.9041702-.0559552-.2770149.1187761-.494361.0676268-.7030743-.0906268-.3732464-.4902089-.6855546-.882582-.7533483-.1918956-.0332621-.5231642.0751571-.9508956.1002941-.8201044.0490045-1.8286716-.0624616-2.7836865-.1002941-1.0902687-.0431645-2.0926568-.5309239-2.9879403-.3013901-.4637762.1188295-.7620896.5674868-.679015.8538963.1307911.4501808.7706717.2676202 1.3580299.6027802.3206269.1823067.4685821.8846193.8829254.9539364.4884925.0822666.5784328-.3265271 1.0864925-.2508621.6014328.2300416.0707164.9871985.4071343 1.4061485.7219254.2567021 1.0703582-.1305093 1.7658508-.2008421m-5.568403-4.8214797c.5204179.1338101.6982388.6545776 1.1544627.6528003.5197313-.0022852.598-.550221 1.0864925-.5022322.6299254.0619538.579806 1.1029811 1.0864926 1.2055603.6797014.1371109 1.1846716-.47481 1.6299104-.6528002.9855672-.3943209 3.0596866-.5098495 2.8516567-1.4566765-.0957761-.4367236-.8410448-.4311376-1.0864925-.7030743-.2993433-.3321131-.2753135-1.1215164-1.1541194-1.2558343-.7250149-.1104505-1.2100746.3445546-1.6299105.4522121-.3817313.097755-.8908209.0914072-1.426.2008421-.3916865.0799813-.7974477.2744757-1.2220895.3514101-1.6048508.2909799-4.1084179.1802755-2.852 1.6072446.7500746.1429508 1.0559403-.0297074 1.561597.100548m-.8146119-3.1139411c.9354477-.1094348.749388 1.0346795 1.6295671 1.0547384.5897612.0132032 1.1280299-.8698926 1.6975373-1.1552864.6786717-.3399843 1.3175224-.5050252 1.6978806-.8033684.2567761-.2021116.6817612-.7045977.135597-.8036222.3992388.3026596.3024329-.0487506.1359403-.301644-1.324388-.047481-1.4970597-.9488583-2.1050149-1.1550325.0974926.0281839.1654627.0784579.2035672.1505681-.285612-.2696515-.860612-.4941071-1.4939702-.3514102-.5568059.6733669-1.252985.6853006-2.3765522 1.1550325-.621.2602568-1.2045821.5715493-1.6975373.7033281-.85649256.2287721-1.78301495.380102-2.10501495.7533483-.29179104.3384608-.01682089.9204205.27153732 1.0547384.49089552.2287721.97183582-.1307632 1.62956713-.100548.7270747.0332621.9254926.4491652 1.4939702.5022322.4054179-.0312309.4088507-.6477221.8829254-.7030743m-3.73492542-3.5156253c.73771642.0104103.70441791 1.1659506 1.49397012 1.2053065.4644627.0231057 1.3161493-.7795009 1.6975373-.9541904.7809702-.3580118 1.4984329-.4428174 2.1729851-.8538963-.0408507-.2582255.6247761-.3039291.4074776-.8538962-.1390298-.3521719-1.0473582-.379848-1.2900597-.5522523-.2550597-.1812911-.2636418-.541842-.4754477-.7533483-.2866418-.2864094-.9402538-.6076044-1.4936269-.5527601-.3408806.0340238-.8448209.4836968-1.154806.6027802-.4160597.1599627-1.03191042.1942405-1.56159699.3516641-.63370149.1881466-1.24714925.5164511-2.03704477.6528003-.8887612.153615-1.86780597.2785382-2.17298508.6027802-.36525373.388227-.22073134 1.075305.47544777 1.2053064.60864179.1137513 1.15652238-.1579314 1.76550746 0 .529.1371109.50153731.4877594 1.1541194.5525062.32062687-.1020715.58083582-.659148 1.01852239-.6528003m-1.1541194-6.7301143c-.52591045.1249232-1.24955224.0716023-2.03704478.200842-.2509403.0411333-.53792537.1612323-.81495522.2008421-1.55541791.2236939-3.40708956-.1660565-3.80255224.6528003-.60417911 1.2505023 1.10331343.8521189 2.03704477 1.2055604.42979105.1627557.65258209.7442075 1.22243284.7533482.42567164.0068556.51114925-.5154354 1.1541194-.4519581.87365672.0863291.42498508 1.3700934 1.35802985 1.4564225.54547761.050274 1.06932836-.4448487 1.49397015-.6027802 1.03808955-.3859418 3.64429855-.3653752 3.39507465-1.4564225-.0803284-.3521719-.9241194-.4164109-1.2220896-.8538963-.158597-.2320729-.0851343-.5144198-.2035671-.7030743-.3189105-.5068025-1.02298511-.8379-1.7655075-.7030742-.13662687.0246291-.65498507.2633037-.81495522.3013901m-2.852-4.7714597c-.55234329-.0672859-1.1249403-.0431645-1.62956717-.1505681-.69720895-.1482829-1.25676119-.3991451-1.83347761-.5024861-.99826866-.1784981-1.91964179.1673261-1.76550746.9041703.12976119.6195382 1.35047761.5679946 1.90110447 1.2555805.26604478.3321131.10573135.8234271.74698508.9041702.4078209.0512897.53380597-.3039291 1.08649254-.2511161.89802985.3275428-.08479105 1.5435134.67901492 1.8583607.51011941.2099828 1.15858209-.1119739 1.62991045-.150822 1.1311194-.0924229 3.81113433.6091279 4.0740896-.4519582.105388-.4247899-.5969702-.7734071-.67901497-1.1050124-.15997015-.6464525.25197015-1.7268357-.88258209-2.0089287-1.43183582.240198-2.09162687-.1505681-3.32744776-.3013901m4.21002985-3.9175633c-.70098508-.2104907-1.80532836-1.3116944-2.7160597-1.4564226-.82079105-.6723513-3.74625374-3.25892317-4.14240299-.7533483.92652239.4991853.98007463 1.4714032 1.01886567 2.4108669.29934329.1300014.86095523.0662702 1.22208955.150568.67935821.7921964-.69549253 1.1022194-.54307462 1.8080867.12564179.5832292 1.69650746.5619008 2.37655224.8536423.82594029.354965 1.55198507 1.0636252 2.64808955 1.0047183 1.30413437-.0700789.56298507-.9460653.74698507-1.6072445.0511493-.1828146.462403-.3920357.6113881-.7533483.3923731-.9531747-.5255672-1.9738893-1.29040302-1.4064025.24647761-.125685.31959701-.1754511.06797015-.251116m4.75344777-3.56589932c.0161343-.09420027.1115672.02843782.135597-.05002009-.8630149-.41590309-1.2087015-1.40183209-2.0370448-2.26029873-.8578656-.88893572-1.0672686-1.97338145-1.6978806-2.561181-.5046268-.47125527-1.86368654-.245784-2.03670146.35115628-.10435821.35953527.21661194.68758581.27153731 1.05499227.13697015.91559618-.72741791 1.24186936-.54307463 1.85810673.40679105.16453309 1.0329403.29250327 1.08614926.60278018.11225373.65457763-1.56468657.98948373-1.49397015 1.60724458.05389552.4704935.89734328.6218233 1.29040298.8536423.67695523.3999068.88738809 1.0443281 1.49397019 1.4566765.3906567-.2805696-.0061791-.0540827 0 .050274.0216268.3740081 1.2680895.7655359 1.7651641.6528003.7373732-.1668183.3807015-.7685829.7469851-1.3056006.9206866-.3610587 1.9316567-1.2751314 1.426-2.21002472-.2667313.21023672-.0168209-.15107591-.4071343-.100548m5.7036567-3.46535127c-.0556119-.33135136-.7353134-.678699-.9508955-1.05499227-.1994478-.34861719-.2413284-.89299828-.4751045-1.35562064-.1434925-.28463209-.4582836-.553014-.6113881-.85415018-.4558806-.89782255-.4061044-2.70311618-1.4936268-2.96311909-.5344926-.12797018-1.3645523.09140727-1.561597.45221209-.2375523.43393063.0700298.93895582 0 1.35562063-.104015.61826864-1.1070896 1.05169146-1.0188657 1.50695046.0830746.42885245.9278955.28818682.9508955.85364236.0322687.80387618-1.9155224.69114055-1.9011045 1.55722446.0068657.44154791.8273135.72643391 1.2220896 1.10501236.4881492.46770055.6951492 1.30280755 1.1541194 1.80808664.1918955.21099845.4287612.25670209.5430746.45195818 1.0497612.67641382 1.8321045-.30545264 2.0373881-1.00471827.9313283-.368676 2.2701343-.87598637 2.1050149-1.85810673"/><path d="m15.6709814 10.5836386c.5298152.8943766-.5298153 1.7683548-1.4941293 2.1136721-.3841431.5136048-.0104309 1.0891336-.7826735 1.2489218-.5208231.1075778-1.8268374-.2668802-1.8498572-.6245823-.0061147-.0998069.4096806-.3161766 0-.0480822-.6352028-.3943708-.8560491-1.0106966-1.56498717-1.3929254-.41183873-.2217122-1.29558348-.3666872-1.35205395-.8164253-.074095-.5910705 1.68296362-.9111326 1.56534682-1.53741477-.0557511-.29650662-.71181556-.4191404-1.13840134-.57650018-.19315057-.58912782.71289463-.90141898.56938052-1.77709702-.0579092-.35114543-.3938545-.66489363-.28451042-1.00875389.18092129-.57115772 1.60491214-.7867989 2.13400804-.33608941.6607403.56217267.8797882 1.59933875 1.7786397 2.44976151.8679186.82103922 1.2301209 1.76398366 2.1347274 2.16151146-.025178.0752801-.1255299-.0422541-.1424351.0478393.4093209-.048325.1474706.2972351.4269455.0961643"/><path d="m18.7689801 8.35560862c-.2344432.7084665-1.1279148 1.70325228-2.3267898 1.01793825-.1305511-.19782525-.4010625-.24413025-.6202159-.457905-.5241647-.5119275-.7605682-1.35802275-1.3180568-1.83187725-.4508523-.383817-1.3878409-.67219425-1.3956818-1.119552-.0164659-.87747975 2.208-.76326075 2.1711477-1.57771425-.026267-.57289575-.9910909-.43037925-1.0859659-.8648745-.1007557-.46124925 1.0448011-.900375 1.1635909-1.52677875.0799773-.42214725-.2716875-.9338175 0-1.37345774.2250341-.36555225 1.173-.58781625 1.7834148-.45816225 1.242.263424 1.1851534 2.09247149 1.7057898 3.00210749.1748522.3050985.5343579.57701175.6982329.86513175.266983.46896675.3148125 1.02051075.5425909 1.373715.2462046.3812445 1.0224546.7331625 1.0859659 1.06887375.1885739.995043-1.3404034 1.5090285-2.4040227 1.8825555" mask="url(#a)"/><path d="m10.0394848 14.5492486c.8073628-.5426268 1.7755462.4333731 1.3615418 1.3447919-.1571985.3454845-.5911243.5455402-.6447312.7203461-.1945059.6319721.5878645 1.4698267-.78816572 1.5368356-1.15689405.0560836-1.92260288-.6215322-2.79443882-.9607043-.7175351-.2792039-2.37463914-.2588099-2.50756967-.8162467-.16082059-.6751879 1.28982458-.9713869.57337611-1.7288793-.38140559-.0808478-.97361654-.0199085-1.28982459-.1439721-.04092956-.8983084-.09743409-1.8281789-1.07467271-2.3052534.41762644-2.39605543 3.50472976.0774487 4.37040815.7201033.96093923.1386309 2.12616408 1.1915939 2.86579395 1.3928635.265861.0723503.1883484.1199363-.0717173.2401154" mask="url(#a)"/><path d="m9.52291483 22.3730853c.79037147-.1297606 1.53981757.1886537 1.87927907.676661.1260648.1815671.047868.4533068.2166853.6766611.3171717.4210499 1.2157031.4828755 1.3008425.8215726.2652842 1.0503032-2.5088722 1.0305092-3.61385757 1.4019519-.45200625.1519982-1.00961462.6285201-1.59024351.5801348-.99317138-.0830858-.51558676-1.3188659-1.44554304-1.4019518-.68440397-.0610926-.77538987.4418213-1.22849234.4352233-.60657266-.0087973-.84372065-.5684051-1.30120798-.7250464-.9939022-.3404077-2.81142775.0432536-2.16831457-1.1602697.42131222-.7883382 2.39194256-.41323 4.0475936-.6282758.29488201-.0383661.60036078-.1537088.86747199-.1932968.83823957-.1243844 1.60851377-.0730667 2.16831456-.1932968.17027883-.0366556.72240612-.2663635.86747199-.2900674" mask="url(#a)"/><path d="m7.77780934 28.8147323c-.62998009-.0599198-.60379996-.3844264-1.11447819-.5113152-.58756165-.1461572-1.11679795.1052707-1.7043596 0-.67173574-.1203095-.81158403-.7561638-.45864937-1.1154473.29460931-.3000687 1.23974515-.4156786 2.09739295-.5578412.7628691-.1261839 1.35473888-.4300123 1.96682369-.604132.51134102-.1456873 1.10586195-.1774095 1.50751158-.3254465.2989174-.1102054.7857352-.5263539 1.1144781-.5578412.5342073-.0507555 1.1655129.2464935 1.442227.5115502.2044701.1957379.2124235.5294087.4586493.697184.2342956.159551 1.1114957.1851637 1.2453789.5110802.2097724.5089654-.4324693.5512617-.3930334.7902358-.6511893.3804316-1.3441343.4589148-2.0977243.7902357-.3685102.1616659-1.1903675.9044358-1.639075.8830527-.76187492-.0364218-.73006109-1.1058132-1.44189551-1.1154473-.42285881-.0058745-.6737241.5096703-.98324615.6041321" mask="url(#a)"/><path d="m12.2228269 31.7893287c-.5811224-.0498021-.7836028-.4401175-1.5272008-.4713332-.6723614-.0283562-1.16399938.3090592-1.66581399.094362-.29442129-.1260543-.57585858-.6722098-.27757717-.9898474.32916231-.350283 1.27629356-.4923025 2.15183716-.7069998.5039202-.1236713 1.100483-.4158121 1.7356469-.6600571 1.148208-.4408324 1.8598723-.4520319 2.4290635-1.0837328.6474461-.134156 1.2352359.0764904 1.5272008.329552-.0386012-.0676737-.1084341-.1148547-.2080952-.1410663.621829.1932513.7983414 1.0391729 2.1518372 1.0837327.1701959.2373346.269506.5671249-.138964.2830859.5583126.0929322.1238745.5645037-.1386132.7541808-.3884676.2799881-1.0418794.4348751-1.7352959.7539424-.5825261.2678355-1.1327676 1.0968386-1.7356469 1.0842094-.8997571-.0188248-.7095589-1.0925494-1.665814-.9898474-.4846195.0519467-.4877778.6305094-.9025644.6598188" mask="url(#a)"/><path d="m16.3608245 45.0149359c-.0003326-.5510157.5711596-.8841605.3948552-1.3995031-.1007928-.3576148-.9567005-.0462865-1.2500976-.2332014-.1520209-.4445862-.0296058-.6359234-.1317292-.9331004-.1929369-.5613343-.9114602-.659214-.9873043-1.1079277-.1307314-.7759621.8742034-1.0333386 1.71115-.699899.3792207.1512419.7145316.5000121 1.1845656.7579783.4208019.2314324.9553699.2800775 1.4473588.4666975.4543995.1724688.824306.5138686 1.2500976.641525.9250988.2777189 1.6406283.125003 1.5790881 1.1663017-.019959.3375671-.3556025.5595654-.3948552.9331004-.057881.560155.5844655 1.3048664-.4603872 1.4578771-1.0119203.1479989-1.8768096-.5819716-2.697789-.6996041-.646671-.0931626-1.3355886.1317838-1.6449528-.3502443" mask="url(#a)"/><path d="m15.1827382 46.8279043c.2627691-.2933721.4150133.2876446.6774711.3776927.0102741-.2920993-.6531868-.403148-.6774711-.6923836-.0333131-.4025115.7157656-.6545188.6774711-1.0070743-.0579089-.5336063-.6833865-.2870083-1.0470291-.6296999-.1108362-.5301061.1684338-.6191996.1232898-1.069758-.0575975-.578153-.6323271-.7674766-.5541813-1.3217652.0597768-.4254213.5681915-.6694738 1.0467177-.5663799.7683817.1654593 1.2363225 1.2899461 1.9707684 1.8881451.2577877.210006.5731729.3038724.8004495.5036963.5744182.5043326.9143991 1.1085773 1.786145 1.321447.4249761.8823435-.2269653 1.5639085-.6158262 2.0141487.1061662.6093357.0747211 1.0751673-.369558 1.1957616-.9321454.2535982-1.5246212-.908117-2.5249496-1.3844488-.6061747-.2889174-1.1254862-.02991-1.2932973-.6293817" mask="url(#a)"/><path d="m11.5724939 47.3365456c-.0246574-.5257343.3380574-.5806709.3530663-.9713655.017153-.4401068-.4577711-.7356597-.4238225-1.0929012.0385943-.4112574.5889203-.6893166 1.2014259-.5462972.8029757.1872142 1.1156609 1.164104 1.7671182 1.8819631.2537217.2792867.652172.5063991.9191158.7890618.372006.3934567.5656922.8108523.8483596 1.0324403.2901719.2271123.820486.3968327.9187585.6067581.433471.9256361-.7604504 1.2795017-1.1310271 1.6999663.0203692.3207195-.0039309.6036891-.1415124.7890619-1.2725394.597244-1.9979691-.801952-2.8273889-1.3961269-.5717673-.4097229-1.4001151-.4456312-1.5548496-.9713655.1836803-.6313108 1.1052976-.6291625 1.1310271-1.3961269-.2033347-.0708958-.8873113-.1384157-1.0602709-.4250683" mask="url(#a)"/><path d="m11.9721113 53.5273026c-.1076402.305524-.1367696.6974649-.3293013.9092172-1.0472728.2209457-1.346335-.9662156-1.9755309-1.6970829-.40781216-.4743742-.90939337-.5914355-1.0422791-1.0912445.1301115-.5197278.92326453-.4936801.93269692-.969893.00860012-.4372946-.47106466-.3337167-.65860276-.7274963.31737218-.6180962.39921203-1.3152546.1647894-2.1215069 1.13909984-1.1657103 1.60794504.89175 2.14004284 1.8187409.3789601.6597724.7790045 1.3949298 1.0425565 1.7577587.1706153.235042.6119957.5243244.6586028.7271899.2016867.880718-.5900792 1.1782744-.9329744 1.3943169" mask="url(#a)"/><path d="m7.57789625 54.9593182c-.2642125.2213149-.2314375.7565387-.5689625.9007425-1.170125-.102916-1.2618375-1.4180547-1.8765125-2.1017325-.32315-.3597505-.7932125-.4474872-.7960875-1.0209629.2659375-.387377 1.00165-.3266596 1.0235-.7808257.0192625-.394663-.468625-.3324277-.6256-.7207154.3038875-.5479745.6046125-1.0756086.3412625-1.9214019 1.0025125-1.0719655 1.5033375.5959412 1.819875 1.4411273.1434625.3837339.3933.6442116.6256 1.0810732.1311.2465126.1768125.6299429.340975.9608527.2354625.4729885.708975.8163453.7397375 1.0206593.101775.6864102-.6072 1.0649831-1.0237875 1.1411834" mask="url(#b)"/></g></g></g></svg>