<svg height="40" viewBox="0 0 151 40" width="151" xmlns="http://www.w3.org/2000/svg" xmlns:xlink="http://www.w3.org/1999/xlink"><mask id="a" fill="#fff"><path d="m0 3.87727761v-3.77138701h6.89579865v3.77138701z" fill="none"/></mask><mask id="b" fill="#fff"><path d="m.00002668.08909091h15.83615242v39.91090909h-15.83615242z" fill="none"/></mask><mask id="c" fill="#fff"><path d="m.11870945.09026316h5.62140343v6.7868395h-5.62140343z" fill="none"/></mask><mask id="d" fill="#fff"><path d="m2.99064881 5h-2.97406881v-4.93645701h2.97406881z" fill="none"/></mask><g fill="none" fill-rule="evenodd"><text fill="#335d94" font-family="Montserrat-Regular, Montserrat" font-size="20" letter-spacing="3.29999995" transform="translate(37 -2)"><tspan x="0" y="20">Addison</tspan> <tspan font-family="Montserrat-Black, Montserrat" font-weight="700" letter-spacing="10.7" x=".08" y="39.76">Stone</tspan></text><circle cx="17" cy="19" fill="#ececec" r="17"/><g transform="translate(10)"><path d="m5.82705667.89414c.7714.222.49116666 1.073.5999 1.5824.056.2612.53316666.5358.46153333.8704-.17873333.8356-2.00036667.2832-2.7692.356-.32036667.0304-.76113333.2842-1.10763333.1188-.5194-.2482.14863333-1.206-.46153334-1.464-.37566666-.0416-.46153333.2384-.7385.198-.4361-.0638-.32713333-.4506-.50773333-.7122-.37426667-.5416-1.20423333-.501-1.29243333-.989-.10476667-.5806.5215-.8528 1.20003333-.7122.392.0812.77233333.279 1.24623333.3958.343.0846.7322.0656 1.10763334.1184.84023333.1188 1.2887.4266 2.2617.2376" fill="#000" mask="url(#a)" transform="translate(0 12)"/><g fill="#335d94"><path d="m8.24535931 24.9211721c-.90426629-1.0428006.89759548-.9620856 2.05263509-1.1745424.3056222-.0564077.5976558-.1983548.8795595-.2569891.385178-.0799728.7513317-.0751484 1.0260705-.1467714.3024104-.0786739.6512694-.4111826 1.1733226-.3302821.6324923.0979713.6151975.6750372.8306402.9175533.1766531.1987259.7130362.1948293.781968.5139783.1494757.6917368-1.3433049.7761628-2.0526351 1.0643246-.3204462.1300718-.6836352.5772514-1.1730755.4770535-.3644242-.0747773-.3283524-.8357249-.7817209-.8809996-.3518238-.0348837-.4079081.3655369-.781968.3672069-.3283524.0012989-.45658032-.3792677-.83088727-.4770535-.36417719-.095188-.58406708.0309872-1.12390912-.0734785"/><path d="m12.5244644 27.9532446c-.2265672-.2256153.1306229-.6333638-.2744238-.7572472-.3419315-.0407475-.4027347.1792617-.7317196.1350958-.2790476-.0373291-.3784597-.4155425-.5943921-.5138561-.3957991-.1803555-.8265079-.0820419-.9145917-.3246126-.05594825-.1542389.1449568-.3957157.4572958-.4597084.6029462-.1236099 1.278024.1390611 2.0122867.1623063.6431735.0203738 1.3221815.0802644 1.8747281.054011.2878328-.0136737.5111633-.0719235.6403991-.054011.2640202.0365087.5331265.2046947.5943922.4055607.0342162.1125342-.0832288.2295807-.0455447.3787603.067739.2684139.4533656.2537831.4570647.4867823.0090164.5234276-1.4743052.3131267-2.2862481.3787603-.468393.0377393-.7030519.2463993-1.1892466.1081586"/><path d="m7.14471642 38.7771636c-.02531343-.1223636-.41886567-.328-.61420896-.6112727-.13659701-.1981818-.17456716-.4278182-.28346268-.5754545-.19271642-.2616364-.40047762-.4176364-.51964179-.6474546-.26268657-.5061818-.67892538-1.5050909-1.51140299-.8630909.21850746.5065455-.03128358.8223636-.28346269 1.1507273.13014926.2323636.53540299.1950909.51964179.4316363-.01838806.272-.62949253.2356364-.85038806.4674546.00238806.3436364.39307463.3961818.66149254.6116364.51032836.4094545.58674627 1.1970909 1.55868657 1.2587272.28035821-.0863636.25313433-.4069091.47235821-.5394545.34626865-.0456364.93492537-.2723637.85038806-.6834546m2.40907462-1.6183636c-.0401194-.1203636-.4200597-.2921818-.56692537-.4314545-.22686567-.2154546-.57146268-.6514546-.89743283-1.043091-.45802985-.5498181-.86161194-1.7707272-1.84238806-1.078909.20202985.4783636.13158209.892-.14185075 1.2587272.16143284.2336364.57456716.1721818.56692537.4316364-.0081194.2823636-.69062686.2669091-.80286567.5754545.11462687.2963637.54614926.3658182.89743284.6472728.54161194.4338181.79904477 1.138 1.70053731 1.0069091.16549254-.1254546.19080597-.358.28346269-.5394546.29516418-.1281818.97647761-.3045454.80310447-.8270909m-.75582089-2.6612727c-.01719403.4543636-.63307463.4530909-.7558209.8270909.10340299.3116363.65695523.3327273 1.03904478.5754545.55426866.352 1.03904477 1.1809091 1.88943287.8272728.0919403-.11.1081791-.2776364.0945671-.4676364.2476418-.2490909 1.0454926-.4587273.7558209-1.0070909-.0656716-.1243637-.4200597-.2249091-.6139701-.3594546-.1888955-.1312727-.3183284-.3785454-.5669254-.6116363-.1783881-.1672728-.4446567-.302-.614209-.4674546-.43534324-.4252727-.64429846-1.004-1.18089547-1.1149091-.40931344-.0847272-.77707463.08-.80286568.3238182-.02268656.2116364.29468657.3867273.28322388.6472727-.01002985.2316364-.25241791.264-.23594029.5754546.11558209.1698182.57265671.2098182.70853731.2518182m2.22017915-.6114546c.7672835.2721818 1.2214925.936 1.9364776.7910909.3410149-.0689091.3648955-.3350909.2837015-.6832727.2982686-.2572727.7980895-.6467273.4721194-1.1509091-.6686568-.1216363-.9291941-.4669091-1.3697911-.7550909-.1745671-.1141818-.4162388-.1678182-.6139701-.2878182-.5635821-.3418182-.9225075-.9843636-1.5118806-1.0789091-.36704481-.0589091-.75677615.0805455-.8028657.3236364-.0599403.3167273.38113433.4250909.42507463.7552727.03462686.2574546-.17958209.3083637-.09432836.6112728.27892533.1958181.75868653.054909.80286563.3598181.0293732.2014546-.545194.3454546-.5196418.5754546.0188657.1652727.5275224.2287273.5196418.3956363-.2013134-.0514545-.3180895-.3834545-.5196418-.2158181.1287165.3425454.5270448.1945454.9922389.3596363m1.6059701-2.3018182c.5893731.0727273 1.2102687.5229091 1.9367164.4314546.7500896-.0941818.2889552-.5534546.3305075-.8989091.0281791-.2303636.2691343-.3672727.2834627-.5754545.0441791-.6421819-.4694926-.5481819-1.133612-.7192728-.3056716-.0789091-.5712239-.2892727-.8974328-.3956363-.353194-.1152728-.7369552-.1450909-1.0390448-.2878182-.3374328-.1590909-.5781492-.3741818-.850388-.4674546-.6008359-.2056363-1.3222687-.0469091-1.228418.4316364.0544478.2765455.5702687.3370909.7087762.6832727.0733134.1832728-.0145672.3012728.0945671.5754546.2106269.1152727.8250747-.0767273.8974329.1438182.1265671.3178181-.2837015.5232727-.2834627.8630909.2220895.2972727.7166567.1585454 1.1808955.2158181m.8503881-2.7332727c.8389253-.0872727 2.3711044.1923637 2.361791-.5034545-.0040597-.3098182-.4023881-.2905455-.4723582-.6474546-.0389254-.1983636.0826269-.354.0470448-.5034545-.0630448-.2672727-.341015-.4909091-.6139702-.5394546-.1334925-.0238181-.3639403.0538182-.6614925.0718182-.5705075.0350909-1.2721194-.0447273-1.9364776-.0718182-.7584478-.0309091-1.4557612-.3801818-2.0785672-.2158181-.32262685.0850909-.53014924.4063636-.4723582.6114545.09098508.3223636.5361194.1916364.9447164.4316364.2230448.1305454.3259702.6334545.614209.6830909.3398209.0589091.402388-.2338182.7558209-.1796364.418388.1647273.049194.7069091.2832239 1.0069091.5022089.1838182.744597-.0934545 1.2284179-.1438182m-3.87367168-3.4525454c.36202985.0958181.48573138.4687272.80310448.4674545.3615522-.0016364.416-.394.7558209-.3596364.4382089.0443637.4033433.7898182.7558209.8632728.4728358.0981818.8241194-.34 1.1338507-.4674546.685612-.2823636 2.1284776-.3650909 1.9837612-1.0430909-.0666268-.3127273-.5850746-.3087273-.7558209-.5034545-.2082388-.2378182-.1915224-.8030909-.8028656-.8992728-.5043582-.0790909-.8417911.2467273-1.1338508.3238182-.2655522.07-.6197015.0654546-.992.1438182-.2724776.0572727-.5547463.1965455-.8501492.2516364-1.11641795.2083636-2.85802989.1290909-1.98400004 1.1509091.52179105.1023636.73456717-.0212728 1.08632836.072m-.56668657-2.2298182c.65074627-.0783637.52131344.7409091 1.13361195.7552727.4102687.0094546.7847164-.6229091 1.1808955-.8272727.4721194-.2434546.9165373-.3616364 1.1811343-.5752727.1786269-.1447273.4742687-.5045455.0943284-.5754546.2777313.2167273.2103881-.0349091.0945672-.216-.9213135-.034-1.0414329-.6794545-1.4643582-.8270909.0678209.0201818.1151044.0561818.1416119.1078182-.1986866-.1930909-.5986866-.3538182-1.0392836-.2516364-.38734327.4821818-.87164177.4907273-1.65325371.8270909-.432.1863637-.83797015.4092728-1.18089553.5036364-.59582089.1638182-1.24035821.2721818-1.46435821.5394545-.20298507.2423637-.01170149.6590909.18889553.7552728.34149253.1638181.6760597-.0936364 1.13361194-.072.50579104.0238181.64382089.3216363 1.03928358.3596363.28202985-.0223636.28441791-.4638182.61420895-.5034545m-2.59820895-2.5174546c.51319403.0074546.49002985.8349091 1.03928358.8630909.32310448.0165455.91558209-.5581818 1.18089552-.6832727.54328359-.2563636 1.04238806-.3170909 1.5116418-.6114545-.0284179-.1849091.4346269-.2176364.2834627-.6114546-.0967164-.2521818-.72859703-.272-.89743286-.3954545-.17743283-.1298182-.18340298-.388-.33074626-.5394546-.19940299-.2050909-.65408956-.4350909-1.03904478-.3958181-.23713433.0243636-.58770149.3463636-.80334328.4316363-.28943284.1145455-.71785075.1390909-1.08632836.2518182-.44083582.1347273-.86758209.3698182-1.41707463.4674545-.61826866.11-1.29934328.1994546-1.51164179.4316364-.25408955.278-.15355224.77.33074627.8630909.42340298.0814546.80453731-.1130909 1.2281791 0 .368.0981818.34889553.3492727.80286568.3956364.22304477-.0730909.4040597-.472.70853731-.4674546m-.80286567-4.8192727c-.36585075.0894546-.86925373.0512727-1.41707463.1438182-.17456716.0294545-.37420896.1154545-.56692537.1438182-1.08202985.1601818-2.37014926-.1189091-2.64525373.4674545-.42029851.8954546.76752238.6101818 1.41707462.8632727.29898508.1165455.45397015.5329091.85038806.5394546.29611941.0049091.35558209-.3690909.80286567-.3236364.6077612.0618182.29564179.9810909.94471642 1.0429091.37946269.036.7438806-.3185454 1.03928358-.4316363.72214926-.2763637 2.53516418-.2616364 2.36179105-1.0429091-.0558806-.2521819-.64286567-.2981819-.85014926-.6114546-.11032835-.1661818-.05922388-.3683636-.14161194-.5034545-.22185074-.3629091-.71164179-.6-1.2281791-.5034546-.09504478.0176364-.45564179.1885455-.56692537.2158182m-1.984-3.4167273c-.38423881-.0481818-.78256717-.0309091-1.13361194-.1078181-.48501493-.1061819-.87426866-.2858182-1.27546269-.3598182-.69444776-.1278182-1.33540299.1198182-1.2281791.6474545.09026865.4436364.93946268.4067273 1.32250746.8990909.18507463.2378182.07355224.5896364.51964179.6474546.28370149.0367272.37134328-.2176364.75582089-.1798182.62471642.2345454-.05898507 1.1052727.47235821 1.3307273.35486568.1503636.80597015-.0801819 1.13385075-.108.78686567-.0661819 2.65122388.4361818 2.83414925-.3236364.07331344-.3041818-.41528358-.5538182-.47235821-.7912727-.11128358-.4629091.17528359-1.2365455-.61397014-1.4385455-.99605971.172-1.45504478-.1078182-2.31474627-.2158182m2.92871641-2.80527269c-.48764179-.15072727-1.25588059-.93927273-1.88943283-1.04290909-.57098508-.48145455-2.60608955-2.33363637-2.88167164-.53945455.64453731.35745455.68179104 1.05363637.70877612 1.72636364.2082388.09309091.59892537.04745454.85014925.10781818.47259702.56727271-.4838209.78927271-.37779104 1.29472731.08740298.4176363 1.1801791.4023636 1.65325373.6112727.57456716.2541818 1.07964179.7616364 1.84214925.7194545.90722388-.0501818.39164179-.6774545.51964179-1.1509091.03558209-.130909.32167164-.2807272.42531343-.5394545.27295523-.6825455-.36561194-1.41345455-.89767164-1.00709091.17146269-.09.22232836-.12563636.04728358-.17981818m3.30674627-2.55345455c.01122388-.06745454.07761194.02036364.09432836-.03581818-.60035821-.29781818-.84083582-1.00381818-1.41707463-1.61854545-.59677611-.63654546-.74244776-1.41309091-1.18113432-1.834-.35104478-.33745455-1.29647762-.176-1.41683582.25145454-.07259702.25745455.15068656.49236364.18889552.75545455.09528358.65563636-.50602985.88927273-.37779105 1.33054545.28298508.11781818.71856717.20945455.75558209.43163637.07808955.46872727-1.08847761.70854545-1.03928358 1.15090909.03749254.33690909.62423881.44527272.89767164.61127272.47092538.28636364.61731344.74781819 1.03928358 1.04309091.2717612-.20090909-.0042985-.03872727 0 .036.01504478.26781819.88214926.54818182 1.2279403.46745455.51295523-.11945455.26483582-.55036364.51964179-.93490909.64047762-.25854546 1.34376121-.91309091.99200001-1.58254546-.18555224.15054546-.0117015-.10818181-.28322389-.072m3.96776119-2.48145454c-.0386866-.23727273-.5115224-.486-.6614925-.75545455-.1387463-.24963636-.1678806-.63945454-.3305075-.97072727-.0998209-.20381818-.318806-.396-.4253134-.61163636-.3171344-.64290909-.2825075-1.93563637-1.0390448-2.12181818-.3718209-.09163637-.9492537.06545454-1.0863284.32381818-.1652537.31072727.0487165.67236363 0 .97072727-.0723582.44272727-.77014921.75309091-.70877608 1.07909091.05779105.30709091.64549258.20636363.66149258.61127273.0224477.57563636-1.33253736.49490909-1.3225075 1.1150909.00477611.31618182.57552238.52018182.85014925.79127273.33958205.33490909.48358205.93290909.80286565 1.29472727.1334926.15109091.2982687.18381819.3777911.32363637.7302686.48436363 1.2745074-.21872727 1.4173134-.71945455.6478806-.264 1.5792239-.62727272 1.4643582-1.33054545" mask="url(#b)"/><path d="m10.9015523 7.57868856c.3685671.64044157-.3685672 1.26627627-1.03939434 1.51354967-.26722993.36778004-.00725625.77990236-.54446847.89432282-.36231174.07703385-1.27084344-.19110651-1.28685722-.44724836-.00425366-.07146931.28499521-.22640644 0-.03443047-.4418802-.28239943-.59551239-.72373549-1.08868672-.99744035-.2864965-.15876274-.90127547-.26257583-.94055927-.58462247-.05154435-.42325137 1.17075733-.65244007 1.08893694-1.10090567-.03878337-.21232124-.49517606-.30013634-.79193139-.41281788-.13436561-.42186024.4959267-.64548442.3960908-1.27253636-.04028466-.25144678-.27398574-.47611431-.19792029-.72234435.12585829-.40899228 1.11646061-.56340774 1.4845273-.24066553.45964548.4025583.61202659 1.14524794 1.2373146 1.75421519.60376949.5879264.85573626 1.26314622 1.48502776 1.54780624-.0175151.05390629-.0873252-.03025708-.0990853.03425658.284745-.03460436.1025883.21284292.2970056.06886094"/><path d="m4.05668182 5.98325c-.16309091.50731579-.78463637 1.21965789-1.61863637.72892105-.09081818-.14165789-.279-.17481579-.43145454-.32789473-.36463636-.36657895-.52909091-.97244737-.91690909-1.31176316-.31363636-.27484211-.96545455-.48134211-.97090909-.80168421-.01145455-.62834211 1.536-.54655263 1.51036363-1.12976316-.01827272-.41023684-.68945454-.30818421-.75545454-.61931579-.07009091-.33028947.72681818-.64473684.80945454-1.09328947.05563637-.30228948-.189-.66868421 0-.9835.15654546-.26176316.816-.42092106 1.24063637-.32807895.864.18863158.82445454 1.49836842 1.18663636 2.14973684.12163636.21847369.37172727.41318421.48572727.6195.18572728.33581579.219.73076316.37745455.98368421.17127273.273.71127273.525.75545454.76539474.13118182.71252631-.93245454 1.08057895-1.67236363 1.34805263" mask="url(#c)" transform="translate(9)"/><path d="m6.9839894 10.4183664c.5616437-.388562 1.23516259.310328.94715956.962973-.10935548.2473931-.41121692.3906482-.44850865.5158225-.13530851.45254.40894918 1.0525075-.54828923 1.100491-.80479586.0401601-1.33746287-.4450643-1.94395744-.6879373-.49915485-.1999312-1.65192288-.1853275-1.74439629-.5844945-.11187519-.4834858.89726928-.6955868.39887034-1.2380089-.26532563-.0578931-.67729846-.0142559-.89726928-.1030949-.02847274-.64325698-.06778024-1.30911485-.74759841-1.65073645.29052274-1.71575753 2.43807287.05545918 3.04028393.51564868.66847947.09927019 1.47907067.85327167 1.99359576.99739597.18494683.0518083.131025.0858835-.04989029.1719409"/><path d="m6.6246364 16.0208272c.54982365-.0929184 1.07117746.1350905 1.30732455.4845407.08769725.1300158.03329954.3246021.1507376.4845407.2206412.3015037.84570654.3457756.90493396.5883084.18454552.7520968-1.74530242.7379228-2.5139879 1.0039039-.31443913.1088423-.7023406.4500682-1.10625635.4154206-.69090183-.0594958-.35866905-.9444081-1.00559516-1.0039039-.47610711-.0437469-.53940165.3163776-.85460337.3116529-.42196359-.0062995-.5869361-.4070212-.90518816-.5191882-.69141022-.2437578-1.95577583.0309728-1.50839274-.8308412.29308676-.56451 1.66396004-.2959041 2.81571729-.4498932.20513531-.027473.41764227-.1100672.60345877-.1384152.58312318-.0890686 1.1189661-.0523213 1.50839274-.1384152.11845484-.0262481.50254338-.1907365.60345877-.2077103"/><path d="m5.41064998 20.6335355c-.43824702-.0429071-.42003476-.2752785-.77528918-.3661405-.40873854-.1046597-.77690292.0753818-1.18564146 0-.46729443-.0861507-.5645802-.5414707-.31906043-.798745.20494561-.2148719.8624314-.2976574 1.45905596-.3994566.53069155-.0903572.94242705-.3079214 1.36822518-.4326044.35571549-.1043231.76929526-.1270386 1.04870367-.2330444.20794257-.0789154.54659847-.3769093.77528918-.3994566.37162241-.0363448.81079157.176508 1.00328829.3663088.14224008.1401632.14777292.3790968.31906042.4992366.16298824.1142507.77321437.1325913.8663505.3659722.14592869.3644579-.30084816.3947453-.2734145.5658688-.45300126.272418-.93504992.3286179-1.4592865.5658688-.25635491.1157651-.82808169.6476447-1.14022606.6323328-.52999995-.0260808-.50786859-.7918462-1.00305775-.798745-.29416265-.0042065-.46867764.3649627-.68399732.4326045"/><path d="m8.50283609 22.7635723c-.40425904-.0356621-.545115-.3151575-1.06240057-.3375103-.46772966-.0203053-.80973867.2213098-1.15882709.0675703-.20481482-.0902644-.40059728-.4813533-.19309716-.7088059.22898247-.2508292.88785635-.352526 1.49693021-.5062655.35055313-.0885581.76555335-.2977531 1.20740653-.472651.79875337-.3156694 1.29382419-.3236891 1.68978329-.7760349.4503973-.0960659.8592945.0547729 1.0624005.2359842-.0268529-.0484595-.0754324-.0822447-.1447618-.1010142.4325767.1383827.5553679.7441267 1.4969302.7760349.1183971.1699496.1874825.4061045-.0966706.202711.3883914.0665465.0861735.4042275-.0964265.5400507-.2702384.2004927-.7247857.3114036-1.2071625.53988-.4052355.1917905-.7880121.7854197-1.2074065.7763762-.62591798-.0134799-.49360614-.7823483-1.15882708-.7088059-.33712666.0371978-.33932372.4514926-.62787093.4724804"/><path d="m11.3814431 32.2341109c-.0002314-.394569.3973284-.633126.2746819-1.0021505-.0701168-.2560793-.6655308-.0331446-.8696331-.1669899-.1057537-.3183574-.0205953-.4553694-.0916377-.6681706-.134217-.401958-.6340593-.4720473-.6868204-.7933604-.09094356-.5556477.6081415-.7399488 1.1903652-.5011807.2638057.1083006.4970655.3580465.8240456.5427699.2927318.1657232.6646052.2005567 1.0068584.3341909.316104.1235007.5734302.3679689.8696331.4593805.643547.1988679 1.1413066.0895117 1.098496.8351606-.0138845.2417237-.2473756.4006913-.2746818.6681707-.0402651.4011135.4065847.9343834-.3202694 1.0439507-.7039446.1059784-1.3056066-.4167358-1.8767228-.5009697-.4498581-.0667115-.9291051.0943673-1.144315-.2508015"/><path d="m10.5619048 33.5323339c.1827959-.2100767.2887049.2059754.4712843.2704566.0071472-.2091653-.4543908-.2886845-.4712843-.4957991-.0231743-.2882289.497924-.4686852.4712843-.7211417-.0402844-.3821026-.4753993-.2055197-.7283681-.4509129-.0771035-.3795963.1171713-.443394.0857668-.766028-.0400678-.4140014-.4398797-.5495714-.3855174-.9464842.0415839-.3046339.3952636-.479394.7281515-.405571.5345264.1184814.8600504.9236994 1.3709692 1.3520552.1793306.1503803.398729.2175957.5568345.3606848.3995953.3611405.6361037.7938255 1.2425357.9462564.2956355.6318249-.1578889 1.1198772-.4284009 1.4422834.0738548.4363305.0519799.7699013-.2570838.856256-.648449.1815956-1.0606061-.6502807-1.7564867-.9913704-.4216868-.2068868-.7829469-.0214178-.8996851-.4506851"/><path d="m8.05043056 33.8965597c-.01715302-.3764657.23517035-.4158045.24561132-.6955714.01193253-.3151499-.31844949-.5267882-.29483302-.7826003.0268482-.2944915.40968365-.4936029.83577454-.3911902.55859173.1340596.77611187.8335868 1.2292996 1.3476284.176502.1999905.4536848.3626202.6393849.5650282.2587868.2817448.393525.5806318.5901632.7393056.2018587.1626296.5707729.2841623.6391363.4344848.3015451.6628258-.5290089.9162203-.7868014 1.217305.0141699.2296594-.0027345.4322872-.0984434.5650281-.8852448.427672-1.38989157-.5742585-1.96687929-.9997328-.39775112-.2933927-.97399305-.3191057-1.08163445-.6955714.12777755-.4520665.76890263-.4505281.78680143-.9997328-.14145024-.0507668-.61726002-.0991162-.73757973-.3043812"/><path d="m8.32842528 38.3296116c-.07488015.2187784-.09514411.4994378-.22907922.6510686-.72853754.1582138-.93658084-.6918838-1.37428234-1.2152402-.28369541-.339688-.63262147-.4235128-.72506372-.7814139.09051235-.3721646.64227098-.3535125.64883264-.694517.00598269-.3131361-.32769715-.2389665-.45815844-.5209426.22078064-.4426038.27771272-.9418222.1146361-1.51916.79241726-.834737 1.11857049.6385607 1.48872546 1.3023565.26362444.4724472.54191614.9988757.72525671 1.2586887.1186889.1683079.42573611.3754561.45815844.5207232.14030379.6306609-.41048989.8437339-.64902563.9984367"/><path d="m2.27158 4.35504348c-.1838.15847826-.161.54173913-.3958.645-.814-.07369565-.8778-1.01543478-1.3054-1.505-.2248-.2576087-.5518-.32043478-.5538-.73108696.185-.2773913.6968-.23391304.712-.55913043.0134-.2826087-.326-.23804348-.4352-.51608696.2114-.3923913.4206-.77021739.2374-1.37586956.6974-.7676087 1.0458.42673913 1.266 1.03195652.0998.27478261.2736.46130434.4352.77413043.0912.17652174.123.45108696.2372.68804348.1638.33869565.4932.58456522.5146.73086957.0708.49152173-.4224.76260869-.7122.81717391" mask="url(#d)" transform="translate(3 35)"/></g></g></g></svg>